<svg width="512" height="377" viewBox="0 0 512 377" fill="none" xmlns="http://www.w3.org/2000/svg">
<g clip-path="url(#clip0_1_51)">
<rect width="512" height="377" fill="white"/>
<path d="M0 7H386.016H512" stroke="black" stroke-width="15" stroke-linejoin="round"/>
<path d="M142 51.5H149.5V44H142V51.5ZM142 92.5L149.499 92.6402L149.5 92.5701V92.5H142ZM7 92.5H-0.5V92.889L-0.459766 93.2758L7 92.5ZM7 51.5V44H-0.5V51.5H7ZM94.5938 250.198C97.4647 253.184 102.213 253.277 105.198 250.406C108.184 247.535 108.277 242.787 105.406 239.802L94.5938 250.198ZM44.5938 239.802C41.7228 242.787 41.8159 247.535 44.8017 250.406C47.7875 253.277 52.5353 253.184 55.4062 250.198L44.5938 239.802ZM67.5 14V51.5H82.5V14H67.5ZM75 59H142V44H75V59ZM134.5 51.5V92.5H149.5V51.5H134.5ZM134.501 92.3598C134.358 100.026 131.585 113.687 122.78 125.606C114.216 137.2 99.6118 147.634 74.5878 149.011L75.4122 163.989C104.888 162.366 123.618 149.717 134.845 134.519C145.832 119.646 149.309 102.807 149.499 92.6402L134.501 92.3598ZM75.1829 149.002C66.1761 148.783 51.9695 145.635 39.5743 136.926C27.4484 128.406 16.8213 114.431 14.4598 91.7242L-0.459766 93.2758C2.37869 120.569 15.5016 138.344 30.9507 149.199C46.1305 159.865 63.3239 163.717 74.8171 163.998L75.1829 149.002ZM14.5 92.5V51.5H-0.5V92.5H14.5ZM7 59H75V44H7V59ZM67.5 156.5V219H82.5V156.5H67.5ZM69.5938 224.198L94.5938 250.198L105.406 239.802L80.4062 213.802L69.5938 224.198ZM69.5938 213.802L44.5938 239.802L55.4062 250.198L80.4062 224.198L69.5938 213.802Z" fill="black"/>
<path d="M324 51.5H331.5V44H324V51.5ZM324 92.5L331.499 92.6402L331.5 92.5701V92.5H324ZM189 92.5H181.5V92.889L181.54 93.2758L189 92.5ZM189 51.5V44H181.5V51.5H189ZM276.594 250.198C279.465 253.184 284.213 253.277 287.198 250.406C290.184 247.535 290.277 242.787 287.406 239.802L276.594 250.198ZM226.594 239.802C223.723 242.787 223.816 247.535 226.802 250.406C229.787 253.277 234.535 253.184 237.406 250.198L226.594 239.802ZM249.5 14V51.5H264.5V14H249.5ZM257 59H324V44H257V59ZM316.5 51.5V92.5H331.5V51.5H316.5ZM316.501 92.3598C316.358 100.026 313.585 113.687 304.78 125.606C296.216 137.2 281.612 147.634 256.588 149.011L257.412 163.989C286.888 162.366 305.618 149.717 316.845 134.519C327.832 119.646 331.309 102.807 331.499 92.6402L316.501 92.3598ZM257.183 149.002C248.176 148.783 233.969 145.635 221.574 136.926C209.448 128.406 198.821 114.431 196.46 91.7242L181.54 93.2758C184.379 120.569 197.502 138.344 212.951 149.199C228.131 159.865 245.324 163.717 256.817 163.998L257.183 149.002ZM196.5 92.5V51.5H181.5V92.5H196.5ZM189 59H257V44H189V59ZM249.5 156.5V219H264.5V156.5H249.5ZM251.594 224.198L276.594 250.198L287.406 239.802L262.406 213.802L251.594 224.198ZM251.594 213.802L226.594 239.802L237.406 250.198L262.406 224.198L251.594 213.802Z" fill="black"/>
<path d="M506 51.5H513.5V44H506V51.5ZM506 92.5L513.499 92.6402L513.5 92.5701V92.5H506ZM371 92.5H363.5V92.889L363.54 93.2758L371 92.5ZM371 51.5V44H363.5V51.5H371ZM458.594 250.198C461.465 253.184 466.213 253.277 469.198 250.406C472.184 247.535 472.277 242.787 469.406 239.802L458.594 250.198ZM408.594 239.802C405.723 242.787 405.816 247.535 408.802 250.406C411.787 253.277 416.535 253.184 419.406 250.198L408.594 239.802ZM431.5 14V51.5H446.5V14H431.5ZM439 59H506V44H439V59ZM498.5 51.5V92.5H513.5V51.5H498.5ZM498.501 92.3598C498.358 100.026 495.585 113.687 486.78 125.606C478.216 137.2 463.612 147.634 438.588 149.011L439.412 163.989C468.888 162.366 487.618 149.717 498.845 134.519C509.832 119.646 513.309 102.807 513.499 92.6402L498.501 92.3598ZM439.183 149.002C430.176 148.783 415.969 145.635 403.574 136.926C391.448 128.406 380.821 114.431 378.46 91.7242L363.54 93.2758C366.379 120.569 379.502 138.344 394.951 149.199C410.131 159.865 427.324 163.717 438.817 163.998L439.183 149.002ZM378.5 92.5V51.5H363.5V92.5H378.5ZM371 59H439V44H371V59ZM431.5 156.5V219H446.5V156.5H431.5ZM433.594 224.198L458.594 250.198L469.406 239.802L444.406 213.802L433.594 224.198ZM433.594 213.802L408.594 239.802L419.406 250.198L444.406 224.198L433.594 213.802Z" fill="black"/>
<rect x="7.5" y="292.5" width="497" height="77" rx="38.5" stroke="black" stroke-width="15"/>
<circle cx="96" cy="331" r="38.5" stroke="black" stroke-width="15"/>
<path d="M101 331C101 333.761 98.7614 336 96 336C93.2386 336 91 333.761 91 331C91 328.239 93.2386 326 96 326C98.7614 326 101 328.239 101 331Z" stroke="black" stroke-width="10"/>
<circle cx="417" cy="331" r="38.5" stroke="black" stroke-width="15"/>
<path d="M422 331C422 333.761 419.761 336 417 336C414.239 336 412 333.761 412 331C412 328.239 414.239 326 417 326C419.761 326 422 328.239 422 331Z" stroke="black" stroke-width="10"/>
<circle cx="256" cy="331" r="38.5" stroke="black" stroke-width="15"/>
<path d="M261 331C261 333.761 258.761 336 256 336C253.239 336 251 333.761 251 331C251 328.239 253.239 326 256 326C258.761 326 261 328.239 261 331Z" stroke="black" stroke-width="10"/>
</g>
<defs>
<clipPath id="clip0_1_51">
<rect width="512" height="377" fill="white"/>
</clipPath>
</defs>
</svg>
